<svg xmlns:inkscape="http://www.inkscape.org/namespaces/inkscape" xmlns:sodipodi="http://sodipodi.sourceforge.net/DTD/sodipodi-0.dtd" xmlns="http://www.w3.org/2000/svg" xmlns:svg="http://www.w3.org/2000/svg" width="4000.000000pt" height="4000.000000pt" viewBox="0 0 4000.000000 4000.000000" preserveAspectRatio="xMidYMid meet" id="svg70" sodipodi:docname="0509cf37db8e97cc7819fef7fb53cdc0.svg"><defs id="defs74"></defs><metadata>Created by potrace 1.16, written by Peter Selinger 2001-2019</metadata><g transform="translate(0.000000,4000.000000) scale(0.100000,-0.100000)" fill="#000000" stroke="none" id="g68"><path d="M19735 33989 c-1222 -38 -2438 -400 -3490 -1037 -365 -222 -711 -474 -1037 -759 -158 -137 -534 -513 -669 -668 -1074 -1236 -1686 -2719 -1790 -4343 -15 -244 -7 -890 15 -1117 91 -936 337 -1792 751 -2610 142 -282 252 -471 420 -725 859 -1299 2113 -2292 3567 -2824 651 -238 1321 -378 2036 -426 335 -22 871 -11 1222 26 1117 116 2184 487 3131 1087 862 547 1605 1277 2174 2137 167 252 277 441 420 725 414 819 658 1667 751 2610 21 218 30 877 15 1117 -103 1621 -716 3107 -1790 4343 -135 155 -511 531 -669 668 -965 841 -2095 1402 -3332 1656 -551 112 -1119 159 -1725 140z m500 -309 c699 -26 1316 -136 1955 -349 369 -124 602 -221 960 -402 945 -477 1785 -1185 2426 -2044 657 -880 1097 -1906 1279 -2980 106 -624 126 -1286 59 -1925 -243 -2323 -1681 -4397 -3784 -5459 -668 -338 -1392 -567 -2116 -670 -418 -60 -508 -66 -1014 -66 -506 0 -596 6 -1014 66 -1927 275 -3678 1385 -4771 3024 -685 1029 -1065 2146 -1155 3400 -14 194 -14 705 0 910 93 1356 560 2621 1364 3700 641 859 1481 1567 2426 2044 358 181 591 278 961 402 612 205 1262 323 1909 349 102 4 201 7 220 8 19 1 152 -3 295 -8z" id="path4"></path><path d="M19755 33409 c-889 -28 -1789 -245 -2600 -627 -1796 -847 -3134 -2458 -3625 -4366 -106 -411 -168 -796 -200 -1231 -13 -180 -13 -729 0 -910 106 -1468 652 -2796 1609 -3913 147 -172 477 -506 641 -649 992 -866 2179 -1415 3452 -1597 365 -53 492 -61 968 -61 476 0 603 8 968 61 1163 166 2279 650 3201 1388 404 323 803 727 1112 1126 754 974 1221 2116 1358 3325 33 287 41 439 41 775 0 319 -8 481 -36 735 -137 1253 -624 2437 -1411 3428 -740 932 -1748 1669 -2854 2087 -656 249 -1416 406 -2059 425 -91 3 -205 7 -255 8 -49 2 -189 0 -310 -4z m725 -1025 c1154 -97 2229 -536 3133 -1279 79 -65 85 -72 80 -100 -3 -16 -10 -34 -14 -39 -5 -6 -9 -20 -9 -33 0 -13 -4 -23 -10 -23 -5 0 -10 -9 -10 -20 0 -11 -4 -28 -9 -38 -5 -9 -17 -35 -26 -57 -10 -22 -23 -53 -31 -69 -8 -16 -14 -35 -14 -43 0 -7 -4 -13 -10 -13 -5 0 -10 -9 -10 -20 0 -11 -4 -20 -10 -20 -5 0 -10 -9 -10 -20 0 -11 -4 -20 -10 -20 -5 0 -10 -9 -10 -20 0 -11 -4 -20 -10 -20 -5 0 -10 -9 -10 -20 0 -11 -4 -20 -10 -20 -5 0 -10 -9 -10 -20 0 -11 -3 -20 -7 -20 -5 0 -13 -10 -18 -23 -20 -43 -60 -112 -72 -125 -6 -6 -15 -21 -18 -32 -3 -11 -11 -20 -16 -20 -5 0 -9 -6 -9 -13 0 -7 -9 -23 -20 -35 -11 -12 -20 -25 -20 -30 0 -4 -8 -17 -18 -28 -10 -10 -28 -35 -42 -54 -25 -37 -33 -44 -100 -99 -24 -19 -48 -40 -54 -46 -6 -5 -36 -30 -66 -55 -30 -25 -57 -47 -60 -50 -3 -3 -30 -25 -60 -50 -30 -25 -57 -47 -60 -50 -3 -3 -30 -25 -60 -50 -30 -25 -57 -47 -60 -50 -3 -3 -30 -25 -60 -50 -30 -25 -66 -55 -80 -68 -14 -13 -37 -31 -52 -40 -33 -19 -37 -56 -10 -81 9 -9 29 -32 44 -53 15 -20 33 -42 40 -50 7 -7 33 -38 58 -68 25 -30 47 -57 50 -60 3 -3 18 -22 33 -43 16 -20 38 -48 50 -60 12 -12 34 -39 49 -59 15 -20 33 -42 40 -50 7 -7 33 -38 58 -68 25 -30 47 -57 50 -60 3 -3 17 -21 31 -40 15 -19 40 -50 58 -69 17 -18 39 -46 48 -62 20 -34 57 -39 82 -11 9 9 50 46 91 82 41 36 80 70 86 75 6 6 40 35 74 65 35 30 68 59 74 65 6 5 41 35 76 65 36 30 72 61 80 70 8 8 44 39 80 69 84 70 177 164 220 221 19 25 37 47 40 50 3 3 17 21 30 40 13 19 27 37 30 40 13 10 190 280 190 289 0 5 3 11 8 13 9 4 41 57 49 81 3 9 9 17 14 17 5 0 9 9 9 19 0 11 3 21 8 23 7 3 15 18 90 161 19 37 38 70 43 72 10 7 144 -176 263 -357 522 -797 832 -1714 906 -2683 14 -181 14 -651 0 -830 -84 -1075 -443 -2053 -1073 -2923 l-89 -123 -43 83 c-80 155 -90 173 -97 176 -5 2 -8 12 -8 23 0 10 -4 19 -9 19 -5 0 -11 8 -14 18 -6 17 -37 72 -47 82 -3 3 -11 15 -17 28 -32 55 -39 67 -55 86 -10 11 -18 25 -18 32 0 7 -4 14 -8 16 -5 2 -28 32 -52 68 -24 36 -46 67 -50 70 -3 3 -17 21 -30 40 -13 19 -27 37 -30 40 -3 3 -21 25 -40 50 -81 105 -78 102 -210 210 -30 25 -57 47 -60 50 -3 3 -34 30 -70 60 -36 30 -67 57 -70 60 -3 3 -30 25 -60 50 -30 25 -61 51 -68 58 -8 6 -66 56 -130 109 -64 54 -119 100 -122 103 -3 3 -30 25 -60 50 -30 25 -57 47 -60 50 -3 3 -34 30 -70 60 -36 30 -67 57 -70 60 -3 3 -30 25 -60 50 -30 25 -61 51 -68 58 -8 6 -66 56 -130 109 -64 54 -119 100 -122 103 -3 3 -30 25 -60 50 -30 25 -57 47 -60 50 -3 3 -34 30 -70 60 -36 30 -67 57 -70 60 -3 3 -30 25 -60 50 -30 25 -61 51 -68 58 -8 6 -66 56 -130 109 -64 54 -119 100 -122 103 -3 3 -30 25 -60 50 -30 25 -57 47 -60 50 -3 3 -34 30 -70 60 -36 30 -67 57 -70 60 -3 3 -30 25 -60 50 -30 25 -61 51 -68 58 -8 6 -66 56 -130 109 -64 54 -122 103 -128 108 -6 6 -31 27 -54 46 -23 18 -53 44 -66 57 -28 26 -61 28 -83 5 -9 -10 -54 -52 -101 -93 -47 -41 -87 -77 -90 -80 -3 -3 -43 -39 -90 -80 -47 -41 -87 -77 -90 -80 -3 -3 -43 -39 -90 -80 -47 -41 -94 -84 -106 -95 -12 -11 -49 -45 -84 -75 -35 -30 -71 -62 -82 -71 -25 -23 -23 -42 10 -62 15 -9 43 -30 62 -48 19 -17 52 -45 74 -63 21 -17 43 -36 50 -41 6 -6 40 -35 76 -65 36 -30 67 -57 70 -60 3 -3 30 -25 60 -50 30 -25 57 -47 60 -50 3 -3 30 -25 60 -50 30 -25 61 -51 68 -58 8 -6 66 -56 130 -109 64 -54 119 -100 122 -103 3 -3 30 -25 60 -50 30 -25 61 -51 68 -58 8 -6 66 -56 130 -109 64 -54 119 -100 122 -103 3 -3 30 -25 60 -50 30 -25 60 -50 66 -55 6 -6 31 -27 54 -46 23 -18 47 -39 54 -44 6 -6 40 -35 76 -65 36 -30 67 -57 70 -60 3 -3 30 -25 60 -50 30 -25 57 -47 60 -50 3 -3 30 -25 60 -50 30 -25 61 -51 68 -58 8 -6 66 -56 130 -109 64 -54 119 -100 122 -103 3 -3 30 -25 60 -50 30 -25 72 -60 92 -79 21 -19 48 -41 60 -49 13 -9 25 -18 28 -22 3 -3 34 -30 70 -60 36 -30 67 -57 70 -60 3 -3 30 -25 60 -50 30 -25 60 -50 66 -55 6 -6 31 -27 54 -46 23 -18 47 -39 54 -44 6 -6 40 -35 76 -65 84 -71 82 -69 110 -110 13 -19 32 -44 42 -54 10 -11 18 -24 18 -28 0 -5 9 -18 20 -30 11 -12 20 -28 20 -35 0 -7 4 -13 9 -13 5 0 11 -8 14 -17 6 -18 37 -73 47 -83 9 -9 41 -65 58 -102 9 -21 20 -38 24 -38 5 0 8 -9 8 -20 0 -11 5 -20 10 -20 6 0 10 -9 10 -20 0 -11 5 -20 10 -20 6 0 10 -9 10 -20 0 -11 5 -20 10 -20 6 0 10 -6 10 -14 0 -12 14 -44 51 -118 5 -10 9 -25 9 -33 0 -8 4 -15 8 -15 5 0 15 -23 22 -51 8 -27 18 -52 22 -55 4 -3 8 -16 8 -30 0 -13 5 -24 10 -24 6 0 10 -10 10 -23 0 -13 5 -28 11 -34 13 -13 -7 -33 -180 -171 -767 -612 -1727 -1027 -2703 -1166 -316 -46 -405 -51 -818 -51 -413 0 -502 5 -818 51 -984 140 -1934 552 -2719 1179 -118 94 -155 135 -123 135 6 0 10 6 10 13 0 15 122 261 132 265 5 2 8 12 8 23 0 10 4 19 9 19 5 0 11 8 14 18 8 23 40 76 50 80 4 2 7 8 7 13 0 6 18 37 40 69 22 32 40 63 40 69 0 5 4 11 8 13 5 2 28 32 52 68 24 36 46 67 49 70 4 3 18 21 33 42 15 20 33 42 40 50 7 7 26 30 42 51 39 53 130 144 196 197 30 25 57 47 60 50 3 3 30 25 60 50 30 25 57 47 60 50 3 3 30 25 60 50 30 25 57 47 60 50 3 3 30 25 60 50 30 25 66 55 80 68 14 13 37 31 53 40 17 10 27 25 27 39 0 13 -12 35 -27 50 -16 16 -53 57 -83 93 -30 36 -61 72 -70 80 -8 8 -35 40 -60 70 -25 30 -51 62 -60 70 -8 8 -40 44 -70 80 -30 36 -57 67 -60 70 -3 3 -30 34 -60 70 -30 36 -61 72 -70 80 -9 8 -33 36 -54 63 -40 49 -63 57 -93 33 -42 -35 -133 -106 -197 -156 -38 -29 -76 -59 -85 -66 -29 -24 -137 -109 -171 -134 -18 -14 -56 -43 -84 -66 -28 -22 -82 -64 -121 -94 -84 -63 -241 -217 -275 -268 -14 -20 -27 -39 -31 -42 -13 -12 -69 -100 -69 -109 0 -6 -4 -11 -9 -11 -5 0 -11 -8 -14 -17 -6 -18 -37 -73 -47 -83 -6 -6 -50 -86 -65 -117 -5 -13 -13 -23 -17 -23 -5 0 -8 -9 -8 -20 0 -11 -4 -20 -10 -20 -5 0 -10 -9 -10 -19 0 -11 -3 -21 -7 -23 -5 -1 -30 -46 -57 -98 -26 -52 -52 -99 -56 -104 -5 -4 -46 43 -93 105 -658 887 -1031 1884 -1117 2984 -14 179 -14 649 0 830 57 746 256 1468 587 2129 83 167 214 394 320 555 97 147 271 389 297 410 11 10 21 -2 52 -66 21 -43 42 -79 46 -81 4 -2 8 -12 8 -23 0 -10 3 -19 8 -19 4 0 15 -17 24 -37 17 -38 49 -94 58 -103 10 -10 41 -65 47 -82 3 -10 9 -18 14 -18 5 0 9 -5 9 -10 0 -12 95 -156 117 -178 7 -7 13 -17 13 -20 0 -4 10 -18 23 -32 12 -14 35 -43 52 -65 35 -47 165 -177 215 -214 19 -14 52 -41 72 -60 21 -19 48 -41 60 -50 13 -8 40 -31 60 -50 21 -18 48 -41 60 -50 13 -8 40 -31 60 -50 21 -18 48 -41 60 -50 13 -8 40 -31 60 -50 21 -18 48 -41 60 -50 13 -8 40 -31 60 -50 21 -18 48 -41 60 -50 13 -8 40 -31 60 -50 21 -18 48 -41 60 -50 13 -8 40 -31 60 -50 21 -18 48 -41 60 -50 13 -8 40 -31 60 -50 21 -18 48 -41 60 -50 13 -8 40 -31 60 -50 21 -18 48 -41 60 -50 13 -8 40 -31 60 -50 21 -18 48 -41 60 -50 13 -8 40 -31 60 -50 21 -18 48 -41 60 -50 13 -8 40 -31 60 -50 21 -18 48 -41 60 -50 13 -8 40 -31 60 -50 21 -18 48 -41 60 -50 13 -8 40 -31 60 -50 21 -18 48 -41 60 -50 13 -8 40 -31 60 -50 21 -18 48 -41 60 -50 13 -8 40 -31 60 -50 21 -18 48 -41 60 -50 13 -8 40 -31 60 -50 21 -18 48 -41 60 -50 13 -8 40 -31 60 -50 21 -18 48 -41 60 -50 13 -8 34 -25 48 -38 31 -27 57 -49 107 -90 21 -17 48 -39 60 -50 11 -10 38 -32 60 -50 21 -17 48 -39 60 -50 11 -10 38 -32 60 -50 21 -17 48 -39 60 -50 11 -10 38 -32 60 -50 21 -17 48 -39 59 -50 37 -32 86 -68 93 -68 4 0 27 16 50 35 73 60 185 151 211 174 28 24 127 105 150 123 23 18 162 133 190 157 31 26 128 106 154 126 10 8 30 25 45 38 l26 22 -30 26 c-48 42 -77 66 -135 114 -30 25 -61 51 -68 58 -8 6 -66 56 -130 109 -64 54 -119 100 -122 103 -3 3 -30 25 -60 50 -30 25 -61 51 -68 58 -8 6 -66 56 -130 109 -64 54 -119 100 -122 103 -3 3 -30 25 -60 50 -30 25 -61 51 -68 58 -8 6 -66 56 -130 109 -64 54 -119 100 -122 103 -3 3 -30 25 -60 50 -30 25 -61 51 -68 58 -8 6 -66 56 -130 109 -64 54 -119 100 -122 103 -3 3 -30 25 -60 50 -30 25 -57 47 -60 50 -3 3 -34 30 -70 60 -36 30 -67 57 -70 60 -3 3 -30 25 -60 50 -30 25 -57 47 -60 50 -3 3 -30 25 -60 50 -30 25 -57 47 -60 50 -3 3 -34 30 -70 60 -36 30 -67 57 -70 60 -3 3 -30 25 -60 50 -30 25 -57 47 -60 50 -3 3 -30 25 -60 50 -30 25 -57 47 -60 50 -3 3 -34 30 -70 60 -36 30 -67 57 -70 60 -3 3 -30 25 -60 50 -30 25 -57 47 -60 50 -3 3 -30 25 -60 50 -66 53 -145 132 -181 180 -15 19 -37 46 -49 60 -12 14 -34 41 -49 60 -14 19 -28 37 -32 40 -3 3 -25 34 -49 70 -24 36 -47 67 -52 68 -4 2 -8 9 -8 16 0 7 -8 21 -17 32 -17 19 -24 31 -55 87 -7 12 -15 24 -18 27 -3 3 -11 15 -17 28 -7 12 -19 32 -25 45 -7 12 -16 24 -19 27 -3 3 -42 78 -87 167 l-81 163 97 78 c971 785 2131 1218 3392 1266 145 5 477 -5 660 -20z" id="path6"></path><path d="M19904 31683 c-33 -37 -86 -97 -120 -133 -34 -36 -79 -85 -100 -110 -21 -24 -66 -74 -100 -110 -34 -36 -79 -85 -100 -110 -21 -24 -66 -74 -100 -110 -34 -36 -79 -85 -100 -110 -21 -24 -66 -74 -100 -110 -34 -36 -79 -85 -100 -110 -21 -24 -66 -74 -100 -110 -34 -36 -79 -85 -100 -110 -21 -24 -66 -74 -100 -110 -34 -36 -79 -85 -100 -110 -21 -25 -46 -52 -54 -60 -8 -8 -53 -58 -100 -110 -47 -52 -92 -102 -100 -110 -8 -8 -53 -58 -100 -110 -47 -52 -92 -102 -100 -110 -8 -8 -53 -58 -100 -110 -47 -52 -97 -107 -112 -121 -40 -39 -36 -68 15 -106 23 -17 51 -40 62 -50 11 -10 49 -43 85 -73 36 -30 67 -57 70 -60 3 -3 34 -30 70 -60 36 -30 67 -57 70 -60 3 -3 34 -30 70 -60 35 -30 70 -59 76 -65 6 -5 35 -30 64 -55 29 -25 59 -51 66 -57 26 -27 58 -13 104 43 25 31 52 63 60 72 8 9 40 46 70 82 30 36 57 67 60 70 3 3 30 34 60 70 30 36 62 72 70 80 9 8 35 40 60 70 25 30 52 62 60 70 8 8 40 44 70 80 30 36 57 67 60 70 3 3 30 34 60 70 30 36 57 67 60 70 3 3 30 34 60 70 30 36 57 67 60 70 3 3 30 34 60 70 30 36 62 72 70 80 8 8 40 44 70 80 30 36 57 67 60 70 3 3 30 34 60 70 85 100 77 94 102 68 13 -13 52 -57 88 -98 36 -41 72 -82 80 -90 8 -8 40 -44 70 -80 30 -36 61 -72 70 -80 8 -8 40 -44 70 -80 30 -36 61 -72 70 -80 8 -8 40 -44 70 -80 30 -36 61 -72 70 -80 8 -8 40 -44 70 -80 30 -36 61 -72 70 -80 8 -8 28 -31 44 -50 15 -19 47 -55 70 -80 22 -25 70 -79 106 -120 35 -41 67 -77 70 -80 3 -3 34 -39 70 -80 36 -41 72 -82 80 -90 8 -8 40 -44 70 -80 30 -36 61 -72 70 -80 8 -8 40 -44 70 -80 30 -36 61 -72 70 -80 8 -8 40 -44 70 -80 30 -36 61 -72 70 -80 8 -8 40 -44 70 -80 30 -36 61 -72 70 -80 8 -8 44 -49 80 -90 35 -41 67 -77 70 -80 3 -3 34 -39 70 -80 36 -41 72 -82 80 -90 8 -8 40 -44 70 -80 30 -36 61 -72 70 -80 8 -8 40 -44 70 -80 30 -36 61 -72 70 -80 8 -8 40 -44 70 -80 30 -36 61 -72 70 -80 8 -8 40 -44 70 -80 30 -36 61 -72 70 -80 8 -8 28 -31 44 -50 15 -19 47 -55 70 -80 22 -25 70 -79 106 -120 35 -41 67 -77 70 -80 3 -3 34 -39 70 -80 36 -41 72 -82 80 -90 8 -8 40 -44 70 -80 30 -36 65 -75 77 -88 28 -28 28 -31 0 -62 -12 -14 -47 -54 -77 -90 -30 -35 -60 -70 -67 -78 -7 -7 -29 -34 -50 -60 -21 -26 -45 -54 -53 -62 -9 -8 -35 -40 -60 -70 -25 -30 -52 -62 -60 -70 -8 -8 -35 -40 -60 -70 -25 -30 -52 -62 -60 -70 -8 -8 -35 -40 -60 -70 -25 -30 -52 -62 -60 -70 -8 -8 -35 -40 -60 -70 -25 -30 -57 -67 -72 -82 -36 -34 -36 -69 0 -90 15 -9 38 -27 52 -40 14 -13 54 -48 90 -78 36 -30 67 -57 70 -60 3 -3 34 -30 70 -60 36 -30 67 -57 70 -60 3 -3 34 -30 70 -60 35 -30 74 -64 85 -75 12 -11 45 -40 75 -65 29 -25 59 -51 66 -57 26 -27 58 -13 104 43 25 31 56 68 70 82 14 15 50 56 80 92 30 36 62 72 70 80 8 8 44 49 80 90 36 41 84 95 106 120 23 25 55 61 70 80 16 19 36 42 44 50 9 8 40 44 70 80 30 36 62 72 70 80 8 8 44 49 80 90 36 41 84 95 106 120 23 25 55 61 70 80 16 19 36 42 44 50 9 8 40 44 70 80 30 36 62 72 70 80 8 8 44 49 80 90 35 41 77 87 92 103 35 34 35 62 1 96 -16 14 -62 64 -103 111 -41 47 -81 92 -90 100 -8 8 -49 53 -90 100 -41 47 -81 92 -90 100 -8 8 -49 53 -90 100 -41 47 -81 92 -90 100 -8 8 -49 53 -90 100 -41 47 -81 92 -90 100 -8 8 -49 53 -90 100 -41 47 -81 92 -90 100 -8 8 -49 53 -90 100 -41 47 -81 92 -90 100 -8 8 -49 53 -90 100 -41 47 -81 92 -90 100 -8 8 -49 53 -90 100 -41 47 -81 92 -90 100 -8 8 -49 53 -90 100 -41 47 -81 92 -90 100 -8 8 -49 53 -90 100 -41 47 -81 92 -90 100 -8 8 -49 53 -90 100 -41 47 -81 92 -90 100 -8 8 -49 53 -90 100 -41 47 -81 92 -90 100 -8 8 -49 53 -90 100 -41 47 -81 92 -90 100 -8 8 -49 53 -90 100 -41 47 -81 92 -90 100 -8 8 -49 53 -90 100 -41 47 -81 92 -90 100 -8 8 -49 53 -90 100 -41 47 -82 92 -90 100 -8 8 -44 49 -80 90 -36 41 -76 86 -90 100 -14 14 -59 63 -100 110 -41 47 -82 92 -90 100 -8 8 -30 33 -49 55 -18 22 -59 67 -90 100 -31 33 -69 76 -85 95 -15 19 -56 64 -90 100 -33 36 -74 81 -90 100 -15 19 -56 64 -90 100 -33 36 -90 99 -126 140 -36 41 -76 86 -90 100 -14 14 -40 43 -59 65 -18 22 -59 67 -90 100 -31 33 -71 78 -90 100 -19 22 -67 76 -107 120 -39 44 -89 101 -110 127 -23 28 -48 47 -60 47 -15 1 -41 -21 -80 -66z" id="path8"></path><path d="M21311 28462 c-45 -37 -290 -239 -321 -266 -14 -11 -50 -41 -80 -66 -30 -25 -57 -47 -60 -50 -5 -5 -94 -79 -130 -107 -21 -17 -280 -231 -310 -257 -14 -11 -50 -41 -80 -66 -30 -25 -57 -47 -60 -50 -5 -6 -103 -86 -134 -110 -10 -8 -35 -29 -55 -46 -20 -17 -45 -38 -56 -47 -34 -27 -169 -138 -195 -161 -14 -11 -50 -41 -80 -66 -30 -25 -57 -47 -60 -50 -3 -3 -34 -30 -70 -60 -36 -30 -70 -59 -76 -65 -7 -5 -31 -26 -54 -44 -23 -19 -48 -40 -54 -46 -6 -5 -64 -54 -128 -108 -64 -53 -122 -103 -130 -109 -7 -7 -38 -33 -68 -58 -30 -25 -57 -47 -60 -50 -3 -3 -34 -30 -70 -60 -36 -30 -67 -57 -70 -60 -3 -3 -30 -25 -60 -50 -30 -25 -57 -47 -60 -50 -3 -3 -45 -39 -95 -80 -90 -75 -138 -116 -159 -135 -6 -6 -64 -54 -128 -108 -64 -53 -122 -103 -130 -109 -7 -7 -38 -33 -68 -58 -30 -25 -64 -53 -75 -63 -11 -10 -39 -33 -62 -50 -47 -35 -55 -68 -25 -96 9 -9 42 -45 72 -81 30 -36 61 -72 70 -80 8 -8 40 -44 70 -80 30 -36 61 -72 70 -80 8 -8 40 -44 70 -80 30 -36 61 -72 70 -80 8 -8 40 -44 70 -80 30 -36 61 -72 70 -80 9 -8 33 -36 54 -62 26 -32 46 -48 61 -48 13 0 25 3 27 8 2 4 32 32 68 62 36 30 67 57 70 60 3 3 34 30 70 60 36 30 67 57 70 60 3 3 34 30 70 60 36 30 67 57 70 60 3 3 34 30 70 60 36 30 67 57 70 60 3 3 34 30 70 60 36 30 76 65 90 76 53 46 188 161 236 201 27 23 60 51 74 63 14 12 47 40 75 63 51 44 126 108 135 117 3 3 34 30 70 60 36 30 67 57 70 60 3 3 34 30 70 60 36 30 67 57 70 60 3 3 34 30 70 60 36 30 67 57 70 60 3 3 34 30 70 60 36 30 67 57 70 60 3 3 34 30 70 60 36 30 67 57 70 60 3 3 34 30 70 60 36 30 67 57 70 60 3 3 34 30 70 60 36 30 67 57 70 60 3 3 34 30 70 60 36 30 67 57 70 60 3 3 30 25 60 50 30 25 57 47 60 50 3 3 34 30 70 60 36 30 67 57 70 60 3 3 34 30 70 60 35 30 70 60 76 65 6 6 33 29 60 52 27 23 60 51 74 63 14 12 45 39 70 60 25 21 56 48 70 60 14 12 47 40 74 63 27 23 65 57 85 74 20 18 42 33 49 33 18 0 15 50 -5 69 -10 9 -43 45 -73 81 -30 36 -61 72 -70 80 -8 8 -40 44 -70 80 -30 36 -61 72 -70 80 -8 8 -40 44 -70 80 -30 36 -57 67 -60 70 -3 3 -30 34 -60 70 -30 36 -61 72 -70 80 -9 8 -33 36 -54 63 -21 26 -41 47 -45 47 -3 0 -21 -13 -40 -28z" id="path10"></path><path d="M16875 28319 c-33 -39 -73 -84 -90 -102 -16 -18 -64 -71 -105 -117 -41 -47 -82 -92 -90 -100 -9 -8 -49 -53 -90 -100 -41 -47 -82 -92 -90 -100 -9 -8 -49 -53 -90 -100 -41 -46 -103 -114 -136 -150 -34 -36 -75 -81 -90 -100 -16 -19 -56 -64 -90 -100 -34 -36 -79 -85 -100 -110 -21 -25 -46 -52 -54 -60 -9 -8 -49 -53 -90 -100 -41 -47 -82 -92 -90 -100 -9 -8 -49 -53 -90 -100 -41 -47 -83 -92 -92 -101 -26 -24 -22 -57 10 -88 15 -14 61 -64 102 -111 41 -47 81 -92 90 -100 8 -8 49 -53 90 -100 41 -47 81 -92 90 -100 8 -8 49 -53 90 -100 41 -47 81 -92 90 -100 8 -8 49 -53 90 -100 41 -47 81 -92 90 -100 8 -8 49 -53 90 -100 41 -47 81 -92 90 -100 8 -8 49 -53 90 -100 41 -47 81 -92 90 -100 8 -8 49 -53 90 -100 41 -47 81 -92 90 -100 8 -8 49 -53 90 -100 41 -47 81 -92 90 -100 8 -8 49 -53 90 -100 41 -47 81 -92 90 -100 8 -8 49 -53 90 -100 41 -47 81 -92 90 -100 8 -8 49 -53 90 -100 41 -47 81 -92 90 -100 8 -8 49 -53 90 -100 41 -47 81 -92 90 -100 8 -8 49 -53 90 -100 41 -47 81 -92 90 -100 8 -8 49 -53 90 -100 41 -47 81 -92 90 -100 8 -8 49 -53 90 -100 41 -47 81 -92 90 -100 8 -8 49 -53 90 -100 41 -47 86 -96 100 -110 14 -14 40 -43 59 -65 18 -22 59 -67 90 -100 31 -34 85 -95 121 -135 36 -41 76 -86 90 -100 14 -14 54 -59 90 -100 36 -41 76 -86 90 -100 14 -14 38 -41 54 -60 15 -19 56 -64 90 -100 33 -36 74 -81 90 -100 15 -19 56 -64 90 -100 33 -36 76 -83 95 -105 18 -22 59 -67 90 -100 31 -34 85 -95 121 -135 36 -41 76 -86 90 -100 14 -14 54 -59 90 -100 36 -41 82 -92 104 -115 21 -22 54 -59 74 -82 46 -57 66 -55 120 10 23 29 61 73 84 97 155 168 344 374 384 420 21 24 66 74 100 110 34 36 79 85 100 110 21 25 50 56 64 70 14 14 50 53 80 86 185 202 241 264 276 304 21 25 50 56 64 70 14 14 63 68 110 120 47 52 112 124 146 160 34 36 79 85 100 110 21 25 50 56 64 70 14 14 63 68 110 120 47 52 112 124 146 160 34 36 79 85 100 110 21 25 56 61 77 82 49 48 48 74 -6 115 -23 18 -55 45 -72 60 -16 16 -68 62 -115 103 -47 41 -87 77 -90 80 -3 3 -43 39 -90 80 -47 41 -87 77 -90 80 -3 3 -43 39 -90 80 -47 41 -86 78 -88 83 -2 4 -14 7 -27 7 -15 0 -35 -16 -61 -47 -21 -27 -41 -50 -44 -53 -3 -3 -30 -34 -60 -70 -30 -36 -62 -72 -70 -80 -9 -8 -40 -44 -70 -80 -30 -36 -57 -67 -60 -70 -3 -3 -30 -34 -60 -70 -30 -36 -62 -72 -70 -80 -9 -8 -35 -40 -60 -70 -25 -30 -52 -62 -60 -70 -9 -8 -40 -44 -70 -80 -30 -36 -57 -67 -60 -70 -3 -3 -30 -34 -60 -70 -30 -35 -64 -74 -76 -86 -11 -12 -38 -44 -60 -70 -21 -27 -46 -56 -54 -64 -9 -8 -40 -44 -70 -80 -30 -36 -57 -67 -60 -70 -3 -3 -30 -34 -60 -70 -30 -36 -62 -72 -70 -80 -9 -8 -40 -44 -70 -80 -83 -98 -78 -94 -92 -78 -7 7 -38 43 -68 78 -30 36 -61 72 -70 80 -8 8 -44 49 -80 90 -35 41 -67 77 -70 80 -3 3 -34 39 -70 80 -36 41 -72 82 -80 90 -8 8 -40 44 -70 80 -30 36 -61 72 -70 80 -8 8 -40 44 -70 80 -30 36 -61 72 -70 80 -8 8 -44 49 -80 90 -35 41 -67 77 -70 80 -3 3 -34 39 -70 80 -36 41 -72 82 -80 90 -8 8 -40 44 -70 80 -30 36 -61 72 -70 80 -8 8 -40 44 -70 80 -30 36 -61 72 -70 80 -8 8 -28 31 -44 50 -15 19 -47 55 -70 80 -22 25 -70 79 -106 120 -36 41 -72 82 -80 90 -8 8 -40 44 -70 80 -30 36 -61 72 -70 80 -8 8 -40 44 -70 80 -30 36 -61 72 -70 80 -8 8 -28 31 -44 50 -15 19 -47 55 -70 80 -22 25 -70 79 -106 120 -36 41 -72 82 -80 90 -8 8 -40 44 -70 80 -30 36 -61 72 -70 80 -8 8 -40 44 -70 80 -30 36 -61 72 -70 80 -8 8 -40 44 -70 80 -30 36 -61 72 -70 80 -8 8 -44 49 -80 90 -36 41 -67 77 -70 80 -3 3 -34 39 -70 80 -36 41 -72 82 -80 90 -8 8 -40 44 -70 80 -30 36 -61 72 -70 80 -8 8 -40 44 -70 80 -30 36 -68 77 -84 93 -28 27 -28 28 -10 45 11 9 53 55 94 102 41 47 82 92 90 100 9 8 45 49 80 90 36 41 72 82 80 90 9 8 49 53 90 100 41 47 82 92 90 100 9 8 45 49 80 90 36 41 72 82 80 90 9 8 49 53 90 100 41 47 83 92 93 101 33 31 20 60 -54 124 -39 33 -87 75 -107 94 -145 134 -339 310 -392 357 -24 21 -57 51 -74 67 -44 41 -63 34 -131 -44z" id="path12"></path><path d="M12435 18429 c-131 -20 -241 -76 -324 -164 -95 -102 -141 -221 -141 -365 0 -146 45 -256 146 -356 134 -133 334 -184 546 -138 40 8 102 19 137 22 l64 7 54 118 c29 65 53 123 53 128 0 5 -13 9 -30 9 -23 0 -35 -9 -59 -44 -46 -66 -126 -133 -187 -155 -66 -25 -168 -28 -240 -6 -178 53 -278 266 -252 534 21 220 135 333 338 335 138 0 218 -47 296 -176 28 -45 41 -58 60 -58 l24 0 0 129 0 129 -52 5 c-29 2 -93 13 -143 25 -112 26 -212 33 -290 21z" id="path14"></path><path d="M13884 18429 c-229 -29 -405 -161 -475 -355 -32 -86 -32 -244 -1 -336 53 -154 157 -252 333 -314 99 -35 255 -44 348 -20 248 64 430 282 431 516 0 261 -191 470 -467 510 -76 11 -83 11 -169 -1z m183 -104 c142 -65 233 -234 233 -435 0 -184 -71 -329 -193 -392 -63 -32 -166 -36 -239 -8 -118 44 -218 173 -254 326 -28 121 -5 286 54 384 87 143 249 194 399 125z" id="path16"></path><path d="M16755 18413 c-88 -2 -163 -7 -168 -12 -5 -5 -6 -18 -2 -30 5 -18 14 -21 58 -21 58 0 69 -5 86 -37 15 -29 16 -775 1 -804 -13 -23 -61 -49 -90 -49 -17 0 -21 -5 -18 -27 l3 -28 248 -3 247 -2 0 30 c0 28 -3 30 -34 30 -44 0 -85 15 -113 42 -22 20 -23 29 -23 165 l0 143 123 0 c112 0 128 2 174 25 186 93 240 336 108 483 -72 80 -120 96 -295 97 -80 1 -217 0 -305 -2z m396 -98 c47 -44 60 -85 60 -182 0 -74 -4 -94 -28 -142 -39 -78 -77 -101 -164 -101 l-69 0 0 231 0 231 84 -3 c78 -4 87 -6 117 -34z" id="path18"></path><path d="M14970 18381 c0 -23 5 -30 29 -34 54 -11 61 -27 61 -150 -1 -134 -35 -664 -45 -690 -10 -24 -57 -47 -95 -47 -28 0 -31 -3 -28 -27 l3 -28 183 -3 182 -2 0 30 c0 25 -4 30 -25 30 -14 0 -42 7 -62 15 l-36 15 6 163 c12 287 20 407 27 407 3 0 72 -145 152 -322 137 -304 147 -323 175 -329 16 -3 37 -3 46 0 12 4 73 126 169 334 83 180 152 326 154 324 6 -6 34 -550 29 -566 -7 -23 -47 -41 -91 -41 -33 0 -35 -2 -32 -27 l3 -28 238 -3 237 -2 0 30 c0 25 -4 30 -25 30 -32 0 -90 24 -101 41 -5 8 -18 187 -30 399 -21 366 -21 386 -4 410 9 14 32 30 51 36 26 9 34 17 34 35 0 24 -1 24 -131 27 -115 2 -132 0 -146 -15 -8 -10 -84 -170 -168 -355 -84 -186 -155 -338 -159 -338 -3 0 -73 151 -156 336 -82 184 -155 344 -163 355 -12 17 -26 19 -148 19 l-134 0 0 -29z" id="path20"></path><path d="M17994 18392 c5 -15 -265 -822 -289 -864 -20 -33 -52 -59 -87 -68 -31 -9 -38 -15 -38 -36 l0 -24 198 2 c192 3 197 3 200 24 3 19 -3 23 -45 29 -54 8 -98 28 -106 47 -4 13 78 268 96 296 13 19 270 17 287 -3 20 -24 109 -276 103 -292 -8 -21 -58 -43 -100 -43 -47 0 -66 -12 -61 -36 3 -18 17 -19 258 -19 255 0 255 0 258 22 3 18 -4 24 -38 33 -84 23 -86 26 -254 497 -85 238 -158 437 -161 443 -4 6 -53 10 -116 10 -102 0 -110 -1 -105 -18z m133 -349 l50 -138 -105 -3 c-57 -1 -107 -1 -109 2 -12 11 86 276 102 276 7 0 34 -59 62 -137z" id="path22"></path><path d="M18990 18381 c0 -26 3 -29 47 -34 88 -10 85 5 81 -432 -3 -336 -5 -384 -20 -411 -19 -35 -35 -44 -79 -44 -26 0 -29 -3 -29 -30 l0 -30 203 2 202 3 0 25 c0 21 -6 25 -42 32 -48 8 -102 33 -109 51 -2 7 -3 156 -2 331 l3 319 338 -376 c187 -207 345 -378 354 -381 25 -10 78 -7 91 6 9 9 12 121 12 441 l0 429 29 28 c18 19 44 32 70 36 37 6 41 9 41 35 l0 29 -205 0 -205 0 0 -30 c0 -30 1 -30 54 -30 47 0 57 -4 75 -26 29 -36 32 -80 29 -347 l-3 -239 -303 336 -304 336 -164 0 -164 0 0 -29z" id="path24"></path><path d="M20492 18383 c3 -25 9 -29 52 -37 73 -13 109 -56 290 -346 l158 -253 -3 -118 c-5 -142 -15 -159 -99 -167 -48 -4 -51 -6 -48 -31 l3 -26 248 -3 247 -2 0 29 c0 27 -2 29 -52 33 -82 8 -88 21 -88 193 l0 142 139 239 c148 256 178 292 262 314 33 9 40 15 37 33 -3 22 -6 22 -190 25 l-188 2 0 -30 c0 -27 3 -30 30 -30 21 0 35 -8 46 -25 21 -32 22 -30 -103 -243 -77 -130 -99 -160 -108 -150 -29 31 -225 360 -225 377 0 25 19 39 60 43 30 3 35 7 35 28 l0 25 -253 3 -253 2 3 -27z" id="path26"></path><path d="M22640 18381 c0 -26 3 -29 47 -34 88 -10 85 5 81 -432 -3 -336 -5 -384 -20 -411 -19 -35 -35 -44 -79 -44 -26 0 -29 -3 -29 -30 l0 -30 203 2 202 3 0 25 c0 21 -6 25 -42 32 -48 8 -102 33 -109 51 -2 7 -3 156 -2 331 l3 319 338 -376 c187 -207 345 -378 354 -381 25 -10 78 -7 91 6 9 9 12 121 12 441 l0 429 29 28 c18 19 44 32 70 36 37 6 41 9 41 35 l0 29 -205 0 -205 0 0 -30 c0 -30 1 -30 54 -30 47 0 57 -4 75 -26 29 -36 32 -80 29 -347 l-3 -239 -303 336 -304 336 -164 0 -164 0 0 -29z" id="path28"></path><path d="M24524 18392 c5 -15 -265 -822 -289 -864 -20 -33 -52 -59 -87 -68 -31 -9 -38 -15 -38 -36 l0 -24 198 2 c192 3 197 3 200 24 3 19 -3 23 -45 29 -54 8 -98 28 -106 47 -4 13 78 268 96 296 13 19 270 17 287 -3 20 -24 109 -276 103 -292 -8 -21 -58 -43 -100 -43 -47 0 -66 -12 -61 -36 3 -18 17 -19 258 -19 255 0 255 0 258 22 3 18 -4 24 -38 33 -84 23 -86 26 -254 497 -85 238 -158 437 -161 443 -4 6 -53 10 -116 10 -102 0 -110 -1 -105 -18z m133 -349 l50 -138 -105 -3 c-57 -1 -107 -1 -109 2 -12 11 86 276 102 276 7 0 34 -59 62 -137z" id="path30"></path><path d="M25570 18381 c0 -23 5 -30 29 -34 54 -11 61 -27 61 -150 -1 -134 -35 -664 -45 -690 -10 -24 -57 -47 -95 -47 -28 0 -31 -3 -28 -27 l3 -28 183 -3 182 -2 0 30 c0 25 -4 30 -25 30 -14 0 -42 7 -62 15 l-36 15 6 163 c12 287 20 407 27 407 3 0 72 -145 152 -322 137 -304 147 -323 175 -329 16 -3 37 -3 46 0 12 4 73 126 169 334 83 180 152 326 154 324 6 -6 34 -550 29 -566 -7 -23 -47 -41 -91 -41 -33 0 -35 -2 -32 -27 l3 -28 238 -3 237 -2 0 30 c0 25 -4 30 -25 30 -32 0 -90 24 -101 41 -5 8 -18 187 -30 399 -21 366 -21 386 -4 410 9 14 32 30 51 36 26 9 34 17 34 35 0 24 -1 24 -131 27 -115 2 -132 0 -146 -15 -8 -10 -84 -170 -168 -355 -84 -186 -155 -338 -159 -338 -3 0 -73 151 -156 336 -82 184 -155 344 -163 355 -12 17 -26 19 -148 19 l-134 0 0 -29z" id="path32"></path><path d="M27210 18385 c0 -20 6 -25 38 -31 62 -11 90 -31 102 -72 8 -25 10 -157 8 -404 -3 -366 -3 -368 -26 -390 -18 -19 -36 -23 -98 -26 -74 -4 -75 -4 -72 -31 l3 -26 415 0 415 0 6 40 c4 22 10 87 14 143 l8 104 -23 -4 c-18 -2 -26 -13 -35 -51 -15 -60 -41 -97 -86 -120 -28 -15 -54 -17 -155 -15 -84 2 -126 7 -137 17 -15 11 -17 38 -17 182 l0 169 115 0 c109 0 117 -1 140 -24 14 -14 27 -42 31 -65 6 -35 10 -41 30 -41 l24 0 0 170 0 170 -24 0 c-19 0 -25 -7 -30 -36 -13 -66 -30 -74 -166 -74 l-120 0 0 170 0 170 126 0 c166 0 184 -10 205 -112 10 -52 14 -58 36 -58 l24 0 -7 123 c-3 67 -11 128 -17 135 -7 9 -93 12 -368 12 l-359 0 0 -25z" id="path34"></path><path d="M13907 16861 c-9 -27 -17 -51 -17 -55 0 -14 23 -4 43 20 20 23 32 27 110 31 62 4 91 2 102 -7 13 -11 15 -51 15 -260 0 -269 2 -261 -59 -277 -19 -5 -36 -14 -38 -20 -3 -7 42 -10 137 -10 138 0 178 9 99 22 -30 5 -43 13 -50 32 -10 27 -11 390 -1 468 l7 50 75 0 c96 0 130 -10 130 -35 0 -11 6 -20 13 -20 14 0 39 91 28 103 -4 4 -21 2 -38 -4 -35 -12 -498 -9 -523 4 -12 6 -19 -4 -33 -42z" id="path36"></path><path d="M14900 16874 c-6 -14 -10 -27 -10 -30 0 -12 -186 -446 -206 -481 -14 -24 -33 -47 -44 -53 -37 -20 -20 -25 75 -26 96 0 121 9 63 24 -51 13 -54 30 -23 110 27 70 29 71 69 77 23 4 72 5 110 3 l70 -3 27 -75 c35 -93 35 -98 4 -110 -48 -18 -24 -28 70 -26 52 0 95 3 95 5 0 3 -13 16 -29 30 -19 17 -44 62 -69 126 -67 167 -162 425 -162 440 0 25 -30 17 -40 -11z m64 -276 l26 -68 -94 0 -94 0 46 116 47 117 22 -49 c12 -27 33 -79 47 -116z" id="path38"></path><path d="M15619 16878 c-88 -31 -150 -83 -186 -156 -37 -75 -40 -191 -6 -263 27 -60 86 -118 148 -149 68 -32 201 -39 316 -15 96 19 116 30 97 53 -8 9 -12 47 -12 109 1 80 4 96 20 108 11 7 16 16 12 20 -9 9 -218 -6 -218 -16 0 -5 18 -9 39 -9 62 0 72 -17 69 -118 l-3 -86 -35 -20 c-80 -48 -227 -14 -295 66 -127 150 -93 365 70 451 62 32 157 30 217 -6 26 -15 55 -41 65 -57 9 -17 21 -30 26 -30 10 0 5 115 -5 125 -3 3 -61 8 -129 11 -112 4 -130 3 -190 -18z" id="path40"></path><path d="M16250 16889 c0 -5 6 -9 14 -9 8 0 22 -7 30 -16 14 -13 16 -51 16 -264 0 -265 -1 -269 -50 -285 -55 -18 -5 -25 169 -25 103 0 208 -3 233 -6 l44 -6 12 53 c7 30 15 64 18 77 10 34 -19 28 -33 -8 -8 -22 -25 -36 -57 -50 -54 -25 -189 -37 -228 -21 l-28 11 0 234 c0 129 4 246 9 259 6 16 20 26 40 30 17 4 31 12 31 19 0 10 -29 13 -110 15 -63 1 -110 -2 -110 -8z" id="path42"></path><path d="M16950 16889 c0 -4 18 -10 40 -14 26 -4 44 -14 52 -28 8 -15 12 -98 12 -252 1 -262 -3 -277 -68 -289 -71 -14 -33 -22 99 -22 132 -1 170 7 100 20 -20 4 -39 16 -46 27 -12 24 -8 493 5 521 4 10 23 20 42 24 70 13 30 21 -101 21 -74 0 -135 -4 -135 -8z" id="path44"></path><path d="M17440 16891 c0 -4 13 -14 29 -20 15 -7 33 -24 40 -37 14 -31 15 -462 1 -498 -5 -14 -20 -28 -35 -32 -54 -13 -20 -22 85 -21 112 1 139 12 69 30 -19 5 -39 13 -46 18 -20 18 -25 87 -18 265 l7 173 177 -163 c186 -173 266 -253 295 -298 10 -16 25 -28 33 -28 12 0 14 17 8 108 -3 59 -2 183 3 276 8 156 11 171 31 187 11 10 27 19 34 22 25 9 -1 15 -100 22 -74 5 -103 4 -103 -4 0 -6 14 -14 31 -18 57 -11 64 -35 67 -252 l4 -195 -81 73 c-45 40 -154 144 -242 231 l-161 157 -64 7 c-36 4 -64 3 -64 -3z" id="path46"></path><path d="M19769 16878 c-88 -31 -150 -83 -186 -156 -37 -75 -40 -191 -6 -263 27 -60 86 -118 148 -149 68 -32 201 -39 316 -15 96 19 116 30 97 53 -8 9 -12 47 -12 109 1 80 4 96 20 108 11 7 16 16 12 20 -9 9 -218 -6 -218 -16 0 -5 18 -9 39 -9 62 0 72 -17 69 -118 l-3 -86 -35 -20 c-80 -48 -227 -14 -295 66 -127 150 -93 365 70 451 62 32 157 30 217 -6 26 -15 55 -41 65 -57 9 -17 21 -30 26 -30 10 0 5 115 -5 125 -3 3 -61 8 -129 11 -112 4 -130 3 -190 -18z" id="path48"></path><path d="M20640 16891 c-195 -64 -286 -263 -201 -436 58 -117 151 -175 282 -175 131 0 241 67 296 178 23 46 28 70 28 132 0 89 -25 154 -83 213 -60 63 -124 90 -217 93 -44 2 -91 0 -105 -5z m126 -36 c141 -42 234 -228 190 -379 -21 -73 -72 -129 -133 -150 -57 -20 -67 -20 -130 -1 -69 21 -135 81 -174 161 -76 153 -22 320 120 370 47 17 67 17 127 -1z" id="path50"></path><path d="M23095 16889 c-8 -12 -9 -11 27 -27 20 -8 29 -21 34 -48 10 -55 -2 -458 -15 -482 -6 -11 -22 -23 -36 -26 -54 -14 -20 -22 90 -23 63 0 115 3 115 7 0 5 -15 13 -34 20 -42 14 -46 26 -46 163 l0 107 83 0 c45 0 139 -3 210 -7 l127 -6 -1 -81 c0 -122 -9 -158 -42 -174 -49 -23 -29 -31 78 -29 108 2 131 13 76 34 -25 9 -30 18 -37 58 -7 50 4 438 13 462 3 8 16 19 29 24 42 15 26 29 -33 29 -32 0 -82 3 -112 7 -44 5 -53 3 -49 -8 2 -8 14 -15 26 -17 41 -6 52 -38 52 -154 l0 -108 -207 2 -208 3 3 105 c2 57 8 112 12 121 5 9 23 19 40 22 52 11 33 24 -47 31 -107 9 -141 8 -148 -5z" id="path52"></path><path d="M18380 16881 c0 -6 12 -16 28 -23 25 -12 28 -19 35 -98 10 -102 0 -405 -13 -430 -5 -10 -21 -21 -35 -24 -64 -16 -7 -22 215 -23 l239 -1 10 32 c18 55 24 106 13 106 -5 0 -19 -15 -30 -34 -33 -56 -71 -70 -190 -71 -132 0 -132 0 -132 147 l0 108 26 6 c14 4 62 4 106 1 87 -6 118 -22 118 -64 0 -14 6 -23 15 -23 12 0 15 16 15 85 0 64 -3 85 -13 85 -8 0 -19 -11 -25 -24 -13 -28 -46 -36 -159 -36 l-85 0 4 125 c2 68 7 128 11 132 4 4 56 7 115 7 128 1 152 -8 152 -59 0 -23 5 -35 14 -35 16 0 26 30 26 83 l0 37 -230 0 c-138 0 -230 -4 -230 -9z" id="path54"></path><path d="M21290 16881 c0 -6 12 -16 28 -23 25 -12 28 -19 35 -98 10 -102 0 -405 -13 -430 -5 -10 -21 -21 -35 -24 -64 -16 -7 -22 215 -23 l239 -1 10 32 c18 55 24 106 13 106 -5 0 -19 -15 -30 -34 -33 -56 -71 -70 -190 -71 -132 0 -132 0 -132 147 l0 108 26 6 c14 4 62 4 106 1 87 -6 118 -22 118 -64 0 -14 6 -23 15 -23 12 0 15 16 15 85 0 64 -3 85 -13 85 -8 0 -19 -11 -25 -24 -13 -28 -46 -36 -159 -36 l-85 0 4 125 c2 68 7 128 11 132 4 4 56 7 115 7 128 1 152 -8 152 -59 0 -23 5 -35 14 -35 16 0 26 30 26 83 l0 37 -230 0 c-138 0 -230 -4 -230 -9z" id="path56"></path><path d="M22130 16868 c-82 -42 -113 -148 -63 -217 19 -26 65 -52 196 -111 75 -35 97 -64 97 -127 0 -51 -22 -80 -71 -93 -50 -14 -108 -6 -175 25 -42 18 -55 30 -65 59 -7 20 -19 36 -27 36 -8 0 -12 -6 -9 -14 3 -8 9 -32 12 -53 14 -85 1 -78 134 -81 137 -4 186 7 231 51 37 36 44 62 37 130 -4 45 -10 56 -45 87 -22 19 -62 44 -88 54 -146 57 -184 87 -184 146 0 129 218 145 267 20 9 -22 20 -40 25 -40 4 0 8 33 8 73 l0 72 -118 3 c-106 3 -121 1 -162 -20z" id="path58"></path><path d="M24020 16881 c0 -6 12 -16 28 -23 25 -12 28 -19 35 -98 10 -102 0 -405 -13 -430 -5 -10 -21 -21 -35 -24 -64 -16 -7 -22 215 -23 l239 -1 10 32 c18 55 24 106 13 106 -5 0 -19 -15 -30 -34 -33 -56 -71 -70 -190 -71 -132 0 -132 0 -132 147 l0 108 26 6 c14 4 62 4 106 1 87 -6 118 -22 118 -64 0 -14 6 -23 15 -23 12 0 15 16 15 85 0 64 -3 85 -13 85 -8 0 -19 -11 -25 -24 -13 -28 -46 -36 -159 -36 l-85 0 4 125 c2 68 7 128 11 132 4 4 56 7 115 7 128 1 152 -8 152 -59 0 -23 5 -35 14 -35 16 0 26 30 26 83 l0 37 -230 0 c-138 0 -230 -4 -230 -9z" id="path60"></path><path d="M24828 16877 c-89 -10 -110 -21 -62 -33 14 -4 30 -17 35 -31 10 -27 12 -403 2 -453 -4 -21 -16 -38 -34 -49 -16 -9 -29 -19 -29 -22 0 -3 47 -6 105 -6 101 0 133 10 79 23 -36 9 -44 39 -44 160 l0 104 48 0 47 0 50 -72 c104 -149 198 -218 298 -218 26 0 47 3 47 8 0 4 -22 15 -49 25 -62 22 -124 80 -196 182 -61 86 -62 81 5 117 41 23 73 95 64 144 -8 46 -48 92 -99 115 -45 21 -122 22 -267 6z m225 -39 c16 -12 38 -41 49 -64 25 -58 12 -116 -34 -143 -37 -23 -105 -34 -153 -25 l-35 6 1 62 c1 33 4 88 8 121 5 52 9 60 31 67 38 11 99 0 133 -24z" id="path62"></path><path d="M25590 16881 c0 -6 12 -16 28 -23 25 -12 28 -19 35 -98 10 -102 0 -405 -13 -430 -5 -10 -21 -21 -35 -24 -64 -16 -7 -22 215 -23 l239 -1 10 32 c18 55 24 106 13 106 -5 0 -19 -15 -30 -34 -33 -56 -71 -70 -190 -71 -132 0 -132 0 -132 147 l0 108 26 6 c14 4 62 4 106 1 87 -6 118 -22 118 -64 0 -14 6 -23 15 -23 12 0 15 16 15 85 0 64 -3 85 -13 85 -8 0 -19 -11 -25 -24 -13 -28 -46 -36 -159 -36 l-85 0 4 125 c2 68 7 128 11 132 4 4 56 7 115 7 128 1 152 -8 152 -59 0 -23 5 -35 14 -35 16 0 26 30 26 83 l0 37 -230 0 c-138 0 -230 -4 -230 -9z" id="path64"></path><path d="M0 5200 l0 -5200 20000 0 20000 0 0 5200 0 5200 -20000 0 -20000 0 0 -5200z" id="path66"></path></g></svg>